<svg width="226" height="128" viewBox="0 0 226 128" fill="none" xmlns="http://www.w3.org/2000/svg">
<path d="M78.4561 56.7563H82.5295V73.2238H78.4561V56.7563ZM84.1538 67.0295C84.1538 62.9506 86.6917 60.5058 90.4986 60.5058C94.3056 60.5058 96.8435 62.9506 96.8435 67.0295C96.8435 71.1083 94.3944 73.5785 90.4986 73.5785C86.6029 73.5785 84.1538 71.197 84.1538 67.0295ZM92.8082 67.0295C92.8082 64.7874 91.9326 63.47 90.5367 63.47C89.1408 63.47 88.2779 64.7367 88.2779 67.0295C88.2779 69.3222 89.1408 70.5763 90.5367 70.5763C91.9326 70.5763 92.8335 69.3223 92.8335 67.0421L92.8082 67.0295ZM98.4678 74.0725H102.402C102.581 74.4953 102.893 74.8479 103.292 75.0766C103.691 75.3054 104.154 75.3976 104.61 75.3392C106.17 75.3392 106.983 74.5032 106.983 73.2618V70.9817H106.995C106.659 71.6917 106.116 72.2834 105.436 72.6791C104.757 73.0748 103.973 73.2558 103.188 73.1984C100.206 73.1984 98.2267 70.931 98.2267 67.0295C98.2267 63.1279 100.117 60.6958 103.303 60.6958C104.107 60.6528 104.906 60.86 105.587 61.2888C106.269 61.7176 106.801 62.3469 107.11 63.0899H106.995V60.7972H111.031V73.1351C111.031 76.1119 108.391 77.974 104.508 77.974C100.98 77.9613 98.7216 76.3526 98.4932 74.0852L98.4678 74.0725ZM106.995 67.0295C106.995 65.0407 106.082 63.7866 104.635 63.7866C103.188 63.7866 102.3 65.0534 102.3 67.0295C102.3 69.0056 103.176 70.171 104.635 70.171C106.094 70.171 106.995 69.0942 106.995 67.0295ZM112.642 67.0295C112.642 62.9506 115.18 60.5058 118.987 60.5058C122.794 60.5058 125.332 62.9506 125.332 67.0295C125.332 71.1083 122.87 73.5785 118.987 73.5785C115.104 73.5785 112.668 71.197 112.668 67.0295H112.642ZM121.297 67.0295C121.297 64.7874 120.408 63.47 119.025 63.47C117.642 63.47 116.766 64.7367 116.766 67.0295C116.766 69.3222 117.629 70.5763 119.025 70.5763C120.421 70.5763 121.322 69.3223 121.322 67.0421L121.297 67.0295ZM126.982 57.795C126.964 57.3808 127.071 56.9708 127.288 56.6177C127.506 56.2646 127.825 55.9846 128.203 55.8137C128.581 55.6428 129.002 55.5888 129.412 55.6586C129.821 55.7285 130.2 55.919 130.5 56.2057C130.8 56.4924 131.007 56.8621 131.095 57.2673C131.183 57.6725 131.147 58.0947 130.993 58.4795C130.838 58.8643 130.572 59.1941 130.228 59.4266C129.884 59.659 129.478 59.7834 129.063 59.7838C128.797 59.7905 128.533 59.7446 128.286 59.6486C128.038 59.5526 127.812 59.4085 127.621 59.2247C127.43 59.0408 127.277 58.8209 127.172 58.5777C127.066 58.3344 127.01 58.0727 127.007 57.8077L126.982 57.795ZM126.982 60.7845H131.106V73.2744H127.045L126.982 60.7845ZM145.94 67.0295C145.94 71.0957 144.113 73.4518 141.004 73.4518C140.208 73.5008 139.416 73.3048 138.735 72.8902C138.054 72.4757 137.518 71.8626 137.197 71.1337H137.121V77.29H133.047V60.8225H137.095V63.0519H137.172C137.481 62.3087 138.013 61.6788 138.694 61.2481C139.375 60.8174 140.173 60.6069 140.978 60.6452C144.176 60.6198 146.016 62.9633 146.016 67.0421L145.94 67.0295ZM141.791 67.0295C141.791 65.0534 140.864 63.774 139.43 63.774C137.996 63.774 137.095 65.0407 137.083 67.0295C137.07 69.0182 137.996 70.2723 139.43 70.2723C140.864 70.2723 141.867 69.0942 141.867 67.0421L141.791 67.0295ZM152.894 60.4931C156.308 60.4931 158.427 62.1019 158.452 64.686H154.734C154.734 63.7866 153.986 63.2293 152.869 63.2293C151.752 63.2293 151.219 63.66 151.219 64.306C151.219 64.952 151.689 65.1547 152.628 65.3447L155.242 65.8767C157.78 66.4088 158.795 67.4222 158.795 69.3096C158.795 71.843 156.447 73.5658 152.958 73.5658C149.468 73.5658 147.196 71.8937 147.032 69.3476H150.978C151.092 70.2723 151.828 70.817 153.021 70.817C154.214 70.817 154.772 70.437 154.772 69.7656C154.772 69.0942 154.392 68.9802 153.414 68.7776L151.054 68.2835C148.605 67.7642 147.323 66.4848 147.323 64.572C147.4 62.0892 149.531 60.5058 152.97 60.5058L152.894 60.4931ZM172.436 73.2618H168.49V70.9183H168.414C168.193 71.7 167.712 72.3832 167.05 72.8552C166.388 73.3273 165.584 73.56 164.772 73.5151C164.158 73.5351 163.548 73.4253 162.98 73.1931C162.412 72.9608 161.9 72.6113 161.477 72.1675C161.054 71.7237 160.73 71.1957 160.526 70.618C160.321 70.0403 160.242 69.4261 160.292 68.8156V60.7972H164.366V67.9415C164.366 69.4109 165.14 70.209 166.409 70.209C166.707 70.2067 167 70.1408 167.27 70.0155C167.54 69.8902 167.78 69.7086 167.974 69.4829C168.167 69.2571 168.31 68.9926 168.393 68.707C168.475 68.4214 168.495 68.1215 168.452 67.8275V60.7972H172.513L172.436 73.2618ZM174.403 60.7845H178.363V63.1913H178.451C178.67 62.4203 179.139 61.7434 179.784 61.2667C180.429 60.7899 181.215 60.5402 182.017 60.5565C182.823 60.4866 183.626 60.7191 184.269 61.2088C184.912 61.6984 185.349 62.4098 185.494 63.2039H185.672C185.925 62.4056 186.436 61.7132 187.125 61.2344C187.813 60.7556 188.641 60.5173 189.479 60.5565C190.036 60.5353 190.591 60.6318 191.108 60.8397C191.625 61.0475 192.093 61.362 192.479 61.7626C192.866 62.1632 193.164 62.6408 193.353 63.1643C193.543 63.6877 193.619 64.2451 193.578 64.8V73.2744H189.479V65.8387C189.479 64.572 188.882 63.8626 187.728 63.8626C187.471 63.8584 187.217 63.9096 186.983 64.0126C186.749 64.1155 186.539 64.2679 186.369 64.4592C186.199 64.6505 186.073 64.8762 185.998 65.1209C185.924 65.3656 185.904 65.6234 185.938 65.8767V73.2744H182.055V65.8007C182.055 64.534 181.433 63.8626 180.317 63.8626C180.058 63.8606 179.802 63.9138 179.565 64.0188C179.329 64.1237 179.117 64.2779 178.946 64.4711C178.774 64.6643 178.645 64.8919 178.569 65.1387C178.492 65.3855 178.47 65.6458 178.502 65.9021V73.2744H174.429L174.403 60.7845Z" fill="#1E1B1B"/>
<path d="M70.3981 57.8333C70.3982 55.3121 69.6355 52.8497 68.2099 50.7685C66.7843 48.6873 64.7623 47.0845 62.4087 46.1699C60.0551 45.2553 57.4796 45.0716 55.0197 45.6429C52.5597 46.2142 50.33 47.5138 48.6225 49.3715H32.7856V82.7372H66.2231V67.1437C67.5355 65.972 68.5857 64.5371 69.3051 62.9329C70.0245 61.3286 70.3969 59.5909 70.3981 57.8333ZM63.9644 57.8333C63.9669 59.0414 63.6103 60.2231 62.9397 61.2288C62.2692 62.2346 61.3148 63.0191 60.1974 63.4832C59.08 63.9472 57.8498 64.07 56.6624 63.8358C55.4751 63.6017 54.3841 63.0211 53.5274 62.1678C52.6708 61.3144 52.087 60.2265 51.8499 59.0418C51.6129 57.857 51.7333 56.6288 52.1958 55.5124C52.6584 54.396 53.4423 53.4416 54.4485 52.7702C55.4546 52.0987 56.6376 51.7403 57.8479 51.7403C59.4679 51.7403 61.0217 52.3818 62.1684 53.5241C63.3151 54.6664 63.961 56.2162 63.9644 57.8333ZM59.7894 76.3149H39.2193V55.7938H45.4881C45.367 56.4671 45.3033 57.1493 45.2977 57.8333C45.3011 61.1549 46.6244 64.3395 48.9773 66.6882C51.3302 69.0369 54.5204 70.3579 57.8479 70.3612C58.4984 70.3578 59.1477 70.3027 59.7894 70.1966V76.3149Z" fill="#1E1B1B"/>
</svg>
