<svg width="226" height="128" viewBox="0 0 226 128" fill="none" xmlns="http://www.w3.org/2000/svg">
<path d="M81.25 56.5159H85.0569V71.8813H81.25V56.5159ZM86.567 66.0797C86.567 62.2795 88.9019 60.012 92.5058 60.012C96.1097 60.012 98.4446 62.2795 98.4446 66.0797C98.4446 69.8799 96.1605 72.16 92.5058 72.16C88.8512 72.16 86.567 69.9432 86.567 66.0797ZM94.625 66.0797C94.625 63.9896 93.8002 62.7608 92.5058 62.7608C91.2115 62.7608 90.3993 64.0276 90.3993 66.0797C90.3993 68.1318 91.1988 69.3732 92.5058 69.3732C93.8129 69.3732 94.625 68.2078 94.625 66.0923V66.0797ZM99.8786 72.6287H103.533C103.707 73.0144 104.001 73.3337 104.372 73.5392C104.742 73.7446 105.169 73.8251 105.589 73.7687C107.036 73.7687 107.797 72.9834 107.797 71.8433V69.7152H107.721C107.418 70.3674 106.925 70.914 106.308 71.2843C105.69 71.6546 104.976 71.8316 104.257 71.7926C101.477 71.7926 99.6375 69.6772 99.6375 66.0417C99.6375 62.4062 101.389 60.1134 104.307 60.1134C105.049 60.0844 105.782 60.2823 106.408 60.6808C107.034 61.0793 107.523 61.6592 107.81 62.3428V60.2274H111.617V71.7546C111.617 74.5288 109.167 76.2515 105.551 76.2515C102.188 76.2515 100.094 74.7441 99.8786 72.6413V72.6287ZM107.81 66.067C107.81 64.2176 106.959 63.0522 105.614 63.0522C104.269 63.0522 103.444 64.2049 103.444 66.067C103.444 67.9291 104.257 68.9805 105.614 68.9805C106.972 68.9805 107.81 67.9544 107.81 66.0797V66.067ZM113.051 66.067C113.051 62.2668 115.385 59.9994 118.989 59.9994C122.593 59.9994 124.941 62.2668 124.941 66.067C124.941 69.8672 122.657 72.1473 118.989 72.1473C115.322 72.1473 113.051 69.9432 113.051 66.0797V66.067ZM121.109 66.067C121.109 63.9769 120.284 62.7482 118.989 62.7482C117.695 62.7482 116.946 64.0276 116.946 66.0923C116.946 68.1571 117.746 69.3858 119.04 69.3858C120.334 69.3858 121.109 68.2078 121.109 66.0923V66.067ZM126.387 57.4659C126.377 57.0822 126.482 56.7042 126.687 56.3798C126.893 56.0554 127.19 55.7992 127.542 55.6437C127.893 55.4882 128.283 55.4404 128.662 55.5064C129.041 55.5723 129.391 55.749 129.669 56.0141C129.947 56.2792 130.14 56.6208 130.224 56.9954C130.307 57.3701 130.277 57.7611 130.138 58.1187C129.998 58.4764 129.755 58.7847 129.44 59.0045C129.125 59.2243 128.751 59.3457 128.367 59.3533C128.112 59.3708 127.857 59.3355 127.616 59.2496C127.376 59.1637 127.155 59.0291 126.97 58.8543C126.784 58.6794 126.636 58.468 126.536 58.2335C126.436 57.9989 126.385 57.7462 126.387 57.4913V57.4659ZM126.387 60.2527H130.194V71.8813H126.387V60.2527ZM144.014 66.067C144.014 69.8672 142.326 72.0333 139.433 72.0333C138.691 72.0808 137.952 71.8998 137.317 71.5147C136.681 71.1295 136.179 70.5589 135.879 69.8799H135.803V75.6055H131.996V60.2274H135.803V62.3048H135.879C136.165 61.6146 136.658 61.0291 137.289 60.6279C137.92 60.2268 138.66 60.0294 139.407 60.0627C142.326 60.1134 144.064 62.2922 144.064 66.0923L144.014 66.067ZM140.207 66.067C140.207 64.2176 139.356 63.0395 138.024 63.0395C136.692 63.0395 135.841 64.2303 135.829 66.067C135.816 67.9038 136.692 69.0818 138.024 69.0818C139.356 69.0818 140.207 67.9291 140.207 66.0923V66.067ZM150.549 59.9867C153.709 59.9867 155.625 61.4815 155.714 63.8756H152.249C152.249 63.0522 151.564 62.5328 150.511 62.5328C149.457 62.5328 148.988 62.9382 148.988 63.5336C148.988 64.1289 149.407 64.3189 150.257 64.4963L152.693 64.9903C155.016 65.4843 156.005 66.4217 156.005 68.1824C156.005 70.5892 153.81 72.1346 150.574 72.1346C147.338 72.1346 145.219 70.5892 145.054 68.2205H148.721C148.836 69.0818 149.521 69.5885 150.638 69.5885C151.754 69.5885 152.262 69.2212 152.262 68.6131C152.262 68.0051 151.907 67.8784 150.993 67.6884L148.798 67.2197C146.526 66.751 145.333 65.5477 145.333 63.7742C145.359 61.4941 147.402 60.012 150.549 60.012V59.9867ZM168.708 71.856H165.04V69.6899H164.964C164.763 70.4171 164.318 71.0537 163.704 71.4938C163.09 71.9339 162.344 72.1511 161.589 72.1093C161.01 72.1421 160.432 72.0506 159.892 71.841C159.352 71.6314 158.863 71.3086 158.459 70.8943C158.055 70.48 157.745 69.9839 157.549 69.4396C157.353 68.8953 157.277 68.3154 157.325 67.7391V60.2274H161.132V66.8651C161.132 68.2458 161.843 68.9805 163.023 68.9805C163.3 68.9811 163.573 68.9226 163.825 68.8089C164.078 68.6953 164.303 68.5291 164.485 68.3216C164.668 68.1141 164.804 67.87 164.884 67.6057C164.965 67.3414 164.988 67.0629 164.952 66.789V60.2274H168.759L168.708 71.856ZM170.548 60.2274H174.228V62.4695H174.304C174.506 61.7519 174.941 61.1214 175.54 60.6767C176.139 60.232 176.869 59.9983 177.616 60.012C178.376 59.9513 179.13 60.1783 179.73 60.6477C180.329 61.1171 180.73 61.7946 180.852 62.5455H180.928C181.158 61.7867 181.635 61.1258 182.283 60.6672C182.931 60.2085 183.713 59.978 184.507 60.012C185.024 59.9947 185.54 60.0862 186.02 60.2808C186.5 60.4753 186.933 60.7685 187.292 61.1412C187.651 61.514 187.928 61.9579 188.104 62.4443C188.28 62.9307 188.351 63.4485 188.313 63.9642V71.8813H184.507V64.9776C184.507 63.7109 183.936 63.1282 182.87 63.1282C182.632 63.1262 182.397 63.1751 182.179 63.2716C181.962 63.3681 181.768 63.51 181.611 63.6877C181.453 63.8654 181.336 64.0747 181.266 64.3016C181.196 64.5285 181.176 64.7677 181.207 65.003V71.8813H177.591V64.927C177.591 63.7616 177.02 63.1282 175.979 63.1282C175.739 63.1283 175.501 63.1792 175.282 63.2777C175.063 63.3762 174.867 63.5199 174.707 63.6995C174.548 63.879 174.428 64.0903 174.357 64.3194C174.285 64.5484 174.263 64.79 174.291 65.0283V71.8813H170.484L170.548 60.2274Z" fill="#1E1B1B"/>
<path d="M70.6035 57.2124C69.9578 55.7384 69.103 54.3647 68.0656 53.1336C66.532 51.2592 64.6181 49.7304 62.45 48.6476C60.2818 47.5648 57.9085 46.9526 55.4862 46.8514C53.064 46.7502 50.6477 47.1622 48.3965 48.0603C46.1453 48.9584 44.1101 50.3223 42.4249 52.0621C40.7397 53.8019 39.4428 55.8783 38.6194 58.1545C37.796 60.4307 37.4649 62.8552 37.6478 65.2684C37.8307 67.6815 38.5235 70.0287 39.6806 72.1553C40.8377 74.282 42.4329 76.1399 44.3611 77.6068C45.5984 78.5668 46.9655 79.3473 48.4219 79.9249C50.4637 80.7601 52.6489 81.1904 54.8556 81.1916C59.4104 81.1816 63.7755 79.3692 66.9939 76.1517C70.2123 72.9342 72.0215 68.5742 72.0248 64.0274C72.0281 61.6821 71.5442 59.3616 70.6035 57.2124ZM54.8429 50.3341C56.8244 50.3339 58.7821 50.7662 60.5786 51.6008C60.1405 51.7898 59.6799 51.9218 59.2081 51.9935C57.6557 52.2178 56.2175 52.9373 55.1083 54.0446C53.9991 55.1518 53.2783 56.5874 53.0536 58.1371C52.955 59.0063 52.559 59.8148 51.9325 60.4264C51.306 61.0379 50.4874 61.415 49.6147 61.494C48.0622 61.7183 46.6241 62.4378 45.5148 63.545C44.4056 64.6523 43.6849 66.0879 43.4602 67.6376C43.3841 68.464 43.0309 69.2406 42.4577 69.8417C41.4687 67.7558 41.0244 65.4539 41.1662 63.1505C41.308 60.8471 42.0312 58.6168 43.2685 56.6674C44.5058 54.718 46.2171 53.1127 48.243 52.0009C50.2689 50.8891 52.5437 50.307 54.8556 50.3088L54.8429 50.3341ZM44.3484 72.8945C44.5007 72.7552 44.653 72.6285 44.8053 72.4765C45.9342 71.3839 46.6589 69.9416 46.861 68.385C46.943 67.51 47.3343 66.6927 47.965 66.0795C48.5719 65.4489 49.3888 65.0615 50.2619 64.9901C51.8143 64.7658 53.2525 64.0463 54.3617 62.9391C55.4709 61.8319 56.1917 60.3962 56.4164 58.8465C56.4713 57.9313 56.8647 57.0691 57.5204 56.4271C58.1423 55.8087 58.9669 55.4353 59.8426 55.3757C61.2689 55.1798 62.599 54.5469 63.6496 53.5643C64.8458 54.5549 65.8593 55.7467 66.6443 57.0858C66.5961 57.1508 66.5408 57.2103 66.4794 57.2631C65.8737 57.8992 65.0578 58.2952 64.1825 58.3778C62.6285 58.5982 61.1881 59.3164 60.0782 60.4244C58.9683 61.5324 58.2488 62.9701 58.028 64.5215C57.9386 65.3935 57.5499 66.2079 56.9278 66.8266C56.3056 67.4453 55.4884 67.8303 54.6145 67.9163C53.0575 68.1389 51.6139 68.8569 50.4983 69.9638C49.3827 71.0706 48.6545 72.5071 48.4219 74.0599C48.3536 74.679 48.1406 75.2735 47.8001 75.7953C46.4981 75.0237 45.332 74.0437 44.3484 72.8945ZM54.8429 77.7841C53.5552 77.7855 52.2737 77.6064 51.0359 77.2521C51.4594 76.4642 51.7346 75.6055 51.8481 74.7186C51.937 73.8485 52.3239 73.0357 52.9435 72.4172C53.563 71.7988 54.3773 71.4126 55.2489 71.3238C56.8037 71.102 58.2447 70.3836 59.3564 69.2762C60.4682 68.1687 61.1908 66.7317 61.4162 65.1802C61.5051 64.3101 61.892 63.4972 62.5115 62.8787C63.1311 62.2603 63.9454 61.8741 64.817 61.7853C65.987 61.6334 67.1022 61.1986 68.0656 60.5186C68.6005 62.5427 68.6639 64.6623 68.2508 66.7146C67.8378 68.767 66.9592 70.6976 65.6826 72.3584C64.406 74.0192 62.7653 75.366 60.8863 76.2956C59.0073 77.2251 56.9399 77.7126 54.8429 77.7208V77.7841Z" fill="#1E1B1B"/>
</svg>
