<svg width="225" height="127" viewBox="0 0 225 127" fill="none" xmlns="http://www.w3.org/2000/svg">
<path d="M86.0815 72.696C85.3308 72.7365 84.5883 72.5243 83.9737 72.0938C83.7169 71.9046 83.5103 71.6561 83.3717 71.3697C83.2332 71.0833 83.1669 70.7677 83.1785 70.4502V58.8195C83.1724 58.7702 83.1776 58.7202 83.1938 58.6733C83.2101 58.6264 83.2369 58.5838 83.2721 58.5487C83.3074 58.5136 83.3503 58.487 83.3975 58.4708C83.4447 58.4547 83.495 58.4495 83.5446 58.4556H85.665C85.9048 58.4556 86.0184 58.5811 86.0184 58.8195V69.5468C86.0184 70.0236 86.233 70.262 86.6748 70.262C86.862 70.2697 87.0494 70.2485 87.2301 70.1993C87.4826 70.1993 87.6214 70.2745 87.634 70.5004L87.8234 72.0687C87.8325 72.1144 87.8316 72.1616 87.8208 72.2069C87.8101 72.2523 87.7896 72.2948 87.7609 72.3317C87.7322 72.3685 87.6959 72.3989 87.6544 72.4206C87.6129 72.4423 87.5673 72.455 87.5204 72.4577C87.056 72.6102 86.5707 72.6906 86.0815 72.696Z" fill="#1E1B1B"/>
<path d="M98.0094 71.3535C96.9439 72.2286 95.6049 72.7073 94.2228 72.7073C92.8407 72.7073 91.5017 72.2286 90.4362 71.3535C89.4997 70.4137 88.9744 69.1444 88.9744 67.8216C88.9744 66.4988 89.4997 65.2295 90.4362 64.2897C91.5038 63.4192 92.842 62.9434 94.2228 62.9434C95.6037 62.9434 96.9418 63.4192 98.0094 64.2897C98.9243 65.2382 99.4351 66.5013 99.4351 67.8154C99.4351 69.1294 98.9243 70.3925 98.0094 71.341V71.3535ZM92.4305 69.6973C92.925 70.1426 93.5683 70.3892 94.2354 70.3892C94.9026 70.3892 95.5459 70.1426 96.0404 69.6973C96.4879 69.1859 96.7343 68.5308 96.7343 67.853C96.7343 67.1751 96.4879 66.5201 96.0404 66.0086C95.5459 65.5634 94.9026 65.3168 94.2354 65.3168C93.5683 65.3168 92.925 65.5634 92.4305 66.0086C91.983 66.5201 91.7365 67.1751 91.7365 67.853C91.7365 68.5308 91.983 69.1859 92.4305 69.6973Z" fill="#1E1B1B"/>
<path d="M111.111 63.2609C111.351 63.2609 111.464 63.3864 111.464 63.6248V72.6207C111.486 73.2279 111.372 73.8323 111.13 74.3901C110.887 74.9478 110.523 75.4449 110.063 75.8452C109.043 76.7103 107.73 77.1586 106.39 77.0999C105.18 77.1422 103.986 76.8137 102.97 76.1589C102.536 75.8756 102.165 75.5067 101.881 75.075C101.596 74.6434 101.404 74.1582 101.316 73.6496C101.316 73.3986 101.316 73.2857 101.657 73.2857H103.778C103.868 73.2887 103.955 73.3176 104.029 73.3688C104.103 73.42 104.16 73.4914 104.194 73.5743C104.332 73.9553 104.606 74.2725 104.964 74.4651C105.401 74.689 105.886 74.8011 106.378 74.7913C106.674 74.8074 106.971 74.7647 107.25 74.6656C107.53 74.5665 107.787 74.413 108.006 74.2142C108.206 74.0061 108.362 73.7599 108.464 73.4903C108.566 73.2208 108.612 72.9335 108.599 72.6458V71.8554C107.84 72.4105 106.916 72.6975 105.974 72.6709C105.314 72.6948 104.657 72.5859 104.041 72.3509C103.425 72.1159 102.863 71.7596 102.389 71.3033C101.479 70.3675 100.97 69.1169 100.97 67.8154C100.97 66.5138 101.479 65.2632 102.389 64.3274C102.865 63.8752 103.428 63.5223 104.044 63.2896C104.659 63.0569 105.315 62.949 105.974 62.9724C106.943 62.9469 107.892 63.2525 108.662 63.8381V63.6373C108.656 63.5892 108.661 63.5405 108.677 63.4946C108.692 63.4487 108.718 63.4068 108.752 63.3719C108.786 63.3371 108.827 63.3102 108.873 63.2932C108.918 63.2761 108.967 63.2694 109.016 63.2735L111.111 63.2609ZM106.214 70.4376C106.539 70.4476 106.862 70.3865 107.161 70.2586C107.46 70.1307 107.727 69.9391 107.943 69.6974C108.362 69.1587 108.59 68.4967 108.59 67.8154C108.59 67.1341 108.362 66.4721 107.943 65.9334C107.727 65.6949 107.462 65.5062 107.166 65.3805C106.869 65.2548 106.548 65.1951 106.226 65.2057C105.897 65.1954 105.57 65.2563 105.267 65.3841C104.964 65.5119 104.693 65.7036 104.472 65.9459C104.007 66.4612 103.762 67.1363 103.79 67.8279C103.767 68.5127 104.006 69.1807 104.459 69.6974C104.681 69.939 104.952 70.1303 105.255 70.258C105.558 70.3858 105.885 70.4471 106.214 70.4376Z" fill="#1E1B1B"/>
<path d="M122.357 71.3537C121.289 72.2243 119.951 72.7001 118.57 72.7001C117.19 72.7001 115.851 72.2243 114.784 71.3537C113.868 70.4032 113.357 69.1379 113.357 67.8219C113.357 66.5058 113.868 65.2405 114.784 64.29C115.852 63.4216 117.19 62.9473 118.57 62.9473C119.951 62.9473 121.288 63.4216 122.357 64.29C123.272 65.2384 123.783 66.5016 123.783 67.8156C123.783 69.1296 123.272 70.3928 122.357 71.3412V71.3537ZM116.765 69.6976C117.007 69.9264 117.293 70.1052 117.605 70.2237C117.917 70.3421 118.249 70.3979 118.583 70.3876C118.915 70.3962 119.245 70.3396 119.555 70.2212C119.864 70.1028 120.147 69.9249 120.388 69.6976C120.828 69.1827 121.07 68.529 121.07 67.8532C121.07 67.1775 120.828 66.5238 120.388 66.0089C120.147 65.7816 119.864 65.6036 119.555 65.4852C119.245 65.3668 118.915 65.3103 118.583 65.3188C118.249 65.3086 117.917 65.3643 117.605 65.4828C117.293 65.6012 117.007 65.7801 116.765 66.0089C116.325 66.5238 116.084 67.1775 116.084 67.8532C116.084 68.529 116.325 69.1827 116.765 69.6976Z" fill="#1E1B1B"/>
<path d="M128.34 61.128C128.006 61.4183 127.578 61.5783 127.134 61.5783C126.691 61.5783 126.263 61.4183 125.929 61.128C125.778 60.9861 125.657 60.8149 125.575 60.6251C125.492 60.4352 125.45 60.2306 125.45 60.0239C125.45 59.8171 125.492 59.6125 125.575 59.4227C125.657 59.2328 125.778 59.0617 125.929 58.9198C126.266 58.6367 126.693 58.4814 127.134 58.4814C127.576 58.4814 128.003 58.6367 128.34 58.9198C128.491 59.0617 128.612 59.2328 128.694 59.4227C128.776 59.6125 128.819 59.8171 128.819 60.0239C128.819 60.2306 128.776 60.4352 128.694 60.6251C128.612 60.8149 128.491 60.9861 128.34 61.128ZM128.605 72.696C127.855 72.7326 127.113 72.5208 126.497 72.0937C126.244 71.9017 126.041 71.6523 125.905 71.3664C125.769 71.0805 125.703 70.7663 125.714 70.4501V63.6248C125.708 63.5755 125.714 63.5255 125.73 63.4786C125.746 63.4317 125.773 63.3891 125.808 63.354C125.843 63.3189 125.886 63.2923 125.933 63.2761C125.981 63.26 126.031 63.2548 126.08 63.2609H128.201C128.441 63.2609 128.554 63.3864 128.554 63.6248V69.5468C128.554 70.0235 128.769 70.2619 129.198 70.2619C129.389 70.2688 129.581 70.2476 129.766 70.1992C130.018 70.1992 130.157 70.2745 130.17 70.5003L130.359 72.0687C130.368 72.1144 130.367 72.1615 130.357 72.2069C130.346 72.2522 130.326 72.2948 130.297 72.3316C130.268 72.3685 130.232 72.3988 130.19 72.4205C130.149 72.4423 130.103 72.4549 130.056 72.4576C129.588 72.611 129.098 72.6914 128.605 72.696Z" fill="#1E1B1B"/>
<path d="M138.16 62.9602C138.822 62.9342 139.483 63.0407 140.103 63.2735C140.723 63.5063 141.29 63.8605 141.77 64.3153C142.662 65.2674 143.159 66.5206 143.159 67.822C143.159 69.1235 142.662 70.3766 141.77 71.3288C141.292 71.7876 140.726 72.1453 140.106 72.3804C139.485 72.6154 138.823 72.7229 138.16 72.6964C137.215 72.7173 136.289 72.431 135.522 71.8809V76.4102C135.522 76.6486 135.396 76.7615 135.156 76.7615H133.035C132.987 76.7705 132.937 76.7676 132.89 76.7532C132.843 76.7387 132.8 76.7131 132.766 76.6785C132.731 76.6439 132.705 76.6013 132.69 76.5546C132.676 76.5079 132.673 76.4583 132.682 76.4102V66.122C132.697 66.0213 132.688 65.9186 132.656 65.8221C132.624 65.7255 132.569 65.6378 132.497 65.5659C132.424 65.494 132.336 65.4399 132.239 65.4079C132.142 65.3759 132.039 65.3669 131.937 65.3817H131.521C131.243 65.3817 131.104 65.2813 131.104 65.0806V63.6001C131.098 63.5085 131.123 63.4174 131.176 63.3421C131.229 63.2667 131.306 63.2117 131.395 63.1861C131.831 63.0283 132.293 62.9517 132.758 62.9602C133.221 62.9195 133.686 63.0171 134.093 63.2406C134.5 63.4642 134.83 63.8034 135.042 64.2149C135.449 63.8061 135.935 63.484 136.471 63.2682C137.007 63.0525 137.582 62.9477 138.16 62.9602ZM136.191 69.6978C136.416 69.9316 136.686 70.1176 136.986 70.2447C137.285 70.3719 137.607 70.4374 137.933 70.4374C138.258 70.4374 138.58 70.3719 138.88 70.2447C139.179 70.1176 139.449 69.9316 139.675 69.6978C140.149 69.1722 140.398 68.4835 140.369 67.7781C140.402 67.0722 140.152 66.382 139.675 65.8585C139.449 65.6247 139.179 65.4386 138.88 65.3115C138.58 65.1844 138.258 65.1189 137.933 65.1189C137.607 65.1189 137.285 65.1844 136.986 65.3115C136.686 65.4386 136.416 65.6247 136.191 65.8585C135.732 66.3912 135.493 67.0772 135.522 67.7781C135.496 68.4785 135.735 69.1632 136.191 69.6978Z" fill="#1E1B1B"/>
<path d="M149.115 72.6962C147.982 72.7425 146.859 72.4731 145.872 71.9183C145.476 71.6812 145.138 71.3584 144.885 70.9739C144.631 70.5895 144.468 70.1532 144.407 69.6975C144.407 69.4466 144.496 69.3212 144.774 69.3212H146.629C146.717 69.3246 146.803 69.3522 146.876 69.4009C146.95 69.4496 147.008 69.5175 147.045 69.5972C147.311 70.2747 148.005 70.6135 149.115 70.6135C149.503 70.6311 149.889 70.5535 150.239 70.3876C150.36 70.3334 150.463 70.2475 150.539 70.1393C150.615 70.031 150.659 69.9043 150.668 69.7728C150.668 69.4466 150.466 69.2208 150.062 69.0702C149.583 68.9117 149.088 68.8065 148.585 68.7566C147.99 68.6896 147.4 68.5848 146.818 68.4429C146.253 68.3156 145.738 68.0228 145.341 67.6023C145.108 67.3164 144.936 66.9858 144.836 66.6311C144.737 66.2764 144.711 65.9051 144.762 65.5403C144.813 65.1755 144.939 64.825 145.132 64.5106C145.325 64.1962 145.581 63.9246 145.884 63.7128C146.794 63.1367 147.861 62.8561 148.939 62.9098C149.982 62.8748 151.014 63.1312 151.918 63.6501C152.282 63.8551 152.595 64.1383 152.836 64.4791C153.076 64.8199 153.236 65.2096 153.306 65.6199C153.306 65.8708 153.192 65.9963 152.965 65.9963H151.097C151.018 66.0009 150.94 65.9818 150.873 65.9415C150.805 65.9012 150.751 65.8416 150.718 65.7704C150.594 65.4733 150.359 65.2352 150.062 65.1055C149.728 64.9315 149.354 64.8451 148.977 64.8545C148.607 64.8345 148.238 64.9079 147.904 65.0678C147.786 65.1129 147.685 65.192 147.613 65.2949C147.541 65.3977 147.501 65.5197 147.5 65.645C147.508 65.8166 147.571 65.981 147.68 66.1143C147.789 66.2475 147.938 66.3425 148.106 66.3852C148.59 66.5668 149.094 66.6931 149.608 66.7616C150.198 66.8388 150.784 66.9477 151.362 67.0878C151.928 67.2151 152.442 67.5079 152.839 67.9285C153.051 68.1602 153.215 68.4314 153.321 68.7264C153.427 69.0214 153.474 69.3344 153.457 69.6474C153.468 70.0811 153.366 70.5102 153.16 70.8928C152.954 71.2754 152.652 71.5985 152.284 71.8305C151.34 72.4323 150.235 72.7342 149.115 72.6962Z" fill="#1E1B1B"/>
<path d="M166.799 72.069C166.806 72.1135 166.804 72.159 166.793 72.2029C166.783 72.2467 166.763 72.2879 166.736 72.3241C166.709 72.3604 166.675 72.3909 166.636 72.4138C166.597 72.4368 166.554 72.4518 166.509 72.4579C166.048 72.6075 165.567 72.6878 165.082 72.6963C164.603 72.7457 164.118 72.6712 163.676 72.4799C163.234 72.2887 162.849 71.9873 162.558 71.6048C161.666 72.3667 160.514 72.7577 159.339 72.6963C158.794 72.7213 158.25 72.6326 157.741 72.436C157.232 72.2393 156.771 71.9391 156.386 71.5546C156.004 71.1516 155.707 70.6761 155.514 70.1566C155.321 69.637 155.235 69.084 155.262 68.5308V63.6251C155.262 63.3867 155.376 63.2612 155.616 63.2612H157.736C157.976 63.2612 158.09 63.3867 158.09 63.6251V68.1544C158.067 68.7187 158.261 69.2706 158.633 69.6977C158.818 69.8933 159.044 70.0472 159.294 70.1489C159.544 70.2506 159.814 70.2978 160.084 70.2874C160.361 70.2994 160.637 70.2568 160.897 70.162C161.157 70.0673 161.395 69.9222 161.599 69.7353C161.791 69.5383 161.941 69.3041 162.038 69.0473C162.136 68.7905 162.18 68.5165 162.167 68.2423V63.6251C162.167 63.3867 162.28 63.2612 162.52 63.2612H164.666C164.906 63.2612 165.019 63.3867 165.019 63.6251V69.5346C165.019 70.0239 165.234 70.2623 165.65 70.2623C165.846 70.2698 166.041 70.2486 166.231 70.1995C166.279 70.1862 166.329 70.1838 166.377 70.1925C166.426 70.2013 166.472 70.2208 166.513 70.2498C166.553 70.2788 166.586 70.3164 166.609 70.3598C166.632 70.4033 166.645 70.4514 166.647 70.5006L166.799 72.069Z" fill="#1E1B1B"/>
<path d="M186.855 72.0686C186.866 72.1135 186.867 72.1604 186.858 72.2058C186.849 72.2512 186.83 72.294 186.802 72.3312C186.774 72.3684 186.739 72.399 186.698 72.4208C186.657 72.4427 186.611 72.4552 186.565 72.4576C186.096 72.6092 185.606 72.6896 185.113 72.6959C184.363 72.7344 183.621 72.5225 183.005 72.0937C182.739 71.91 182.523 71.6639 182.375 71.3772C182.228 71.0905 182.154 70.7721 182.16 70.4501V67.5016C182.186 66.939 181.997 66.3874 181.629 65.9584C181.452 65.7623 181.234 65.6077 180.989 65.5057C180.745 65.4037 180.481 65.357 180.216 65.3687C179.977 65.3597 179.739 65.4048 179.521 65.5004C179.302 65.596 179.108 65.7398 178.954 65.9208C178.62 66.3412 178.45 66.8666 178.474 67.4013V72.031C178.474 72.2694 178.36 72.3948 178.121 72.3948H175.987C175.938 72.4009 175.888 72.3957 175.84 72.3796C175.793 72.3635 175.75 72.3368 175.715 72.3018C175.68 72.2667 175.653 72.224 175.637 72.1771C175.62 72.1302 175.615 72.0802 175.621 72.031V67.5016C175.649 66.9452 175.474 66.3974 175.129 65.9584C174.975 65.774 174.782 65.6255 174.564 65.5236C174.346 65.4217 174.108 65.3688 173.867 65.3687C173.609 65.3584 173.353 65.4022 173.113 65.4973C172.874 65.5925 172.658 65.7368 172.479 65.9208C172.118 66.3278 171.932 66.8594 171.961 67.4013V72.031C171.967 72.0802 171.962 72.1302 171.946 72.1771C171.929 72.224 171.903 72.2667 171.867 72.3018C171.832 72.3368 171.789 72.3635 171.742 72.3796C171.695 72.3957 171.645 72.4009 171.595 72.3948H169.538C169.298 72.3948 169.184 72.2694 169.184 72.031V66.1215C169.199 66.0209 169.19 65.9182 169.158 65.8216C169.126 65.7251 169.071 65.6373 168.999 65.5654C168.927 65.4935 168.838 65.4394 168.741 65.4074C168.644 65.3754 168.541 65.3665 168.44 65.3813H168.023C167.745 65.3813 167.606 65.2809 167.606 65.0801V63.5996C167.6 63.508 167.625 63.4169 167.678 63.3416C167.731 63.2663 167.808 63.2112 167.897 63.1856C168.333 63.0278 168.795 62.9513 169.26 62.9597C169.706 62.922 170.153 63.0103 170.551 63.2146C170.948 63.4188 171.28 63.7306 171.507 64.114C171.932 63.7128 172.437 63.4033 172.989 63.2047C173.54 63.0061 174.127 62.9227 174.713 62.9597C175.281 62.9322 175.849 63.0382 176.368 63.2693C176.888 63.5003 177.346 63.8499 177.704 64.2897C178.122 63.8384 178.635 63.485 179.207 63.255C179.779 63.025 180.395 62.9241 181.011 62.9597C181.562 62.9341 182.112 63.0224 182.627 63.2189C183.142 63.4154 183.61 63.7159 184.002 64.1015C184.386 64.5036 184.683 64.9789 184.876 65.4987C185.069 66.0185 185.154 66.5719 185.126 67.1252V69.5467C185.126 70.0235 185.34 70.2619 185.744 70.2619C185.94 70.271 186.136 70.2498 186.325 70.1992C186.586 70.1992 186.724 70.2995 186.741 70.5003L186.855 72.0686Z" fill="#1E1B1B"/>
<path d="M38.8507 61.6299C39.782 57.9094 41.9386 54.6056 44.9773 52.2444C48.016 49.8833 51.762 48.6006 55.6189 48.6006C59.4758 48.6006 63.2219 49.8833 66.2606 52.2444C69.2993 54.6056 71.4559 57.9094 72.3871 61.6299H70.8725C68.3174 61.5925 65.8147 62.3516 63.7159 63.8005C63.5948 63.8877 63.4683 63.9673 63.3372 64.0389H63.1605C63.0295 63.9673 62.903 63.8877 62.7819 63.8005C60.6644 62.3851 58.1706 61.6292 55.6189 61.6292C53.0673 61.6292 50.5735 62.3851 48.456 63.8005C48.3349 63.8877 48.2084 63.9673 48.0774 64.0389H47.9007C47.7696 63.9673 47.6431 63.8877 47.522 63.8005C45.4231 62.3516 42.9204 61.5925 40.3654 61.6299H38.8507ZM68.1462 69.4967C68.9237 68.8948 69.8873 68.5799 70.8725 68.6059H72.9046V64.5784H70.8725C69.1373 64.5575 67.4417 65.0944 66.0383 66.1091C65.2486 66.6879 64.2932 67.0001 63.312 67.0001C62.3308 67.0001 61.3754 66.6879 60.5857 66.1091C59.1467 65.1134 57.4354 64.5796 55.682 64.5796C53.9287 64.5796 52.2174 65.1134 50.7784 66.1091C49.9887 66.6879 49.0333 67.0001 48.0521 67.0001C47.0709 67.0001 46.1155 66.6879 45.3258 66.1091C43.9051 65.0814 42.1852 64.5439 40.4285 64.5784H38.3333V68.6059H40.3654C41.3505 68.5799 42.3142 68.8948 43.0917 69.4967C44.5281 70.4931 46.2375 71.0273 47.989 71.0273C49.7406 71.0273 51.4499 70.4931 52.8863 69.4967C53.6648 68.8966 54.6278 68.582 55.6126 68.6059C56.5981 68.5778 57.5624 68.8929 58.339 69.4967C59.778 70.4924 61.4892 71.0262 63.2426 71.0262C64.9959 71.0262 66.7072 70.4924 68.1462 69.4967ZM68.1462 76.6985C68.9237 76.0966 69.8873 75.7817 70.8725 75.8077H72.9046V71.7802H70.8725C69.1373 71.7593 67.4417 72.2962 66.0383 73.3109C65.2486 73.8897 64.2932 74.2019 63.312 74.2019C62.3308 74.2019 61.3754 73.8897 60.5857 73.3109C59.1467 72.3151 57.4354 71.7814 55.682 71.7814C53.9287 71.7814 52.2174 72.3151 50.7784 73.3109C49.9887 73.8897 49.0333 74.2019 48.0521 74.2019C47.0709 74.2019 46.1155 73.8897 45.3258 73.3109C43.9051 72.2832 42.1852 71.7457 40.4285 71.7802H38.3333V75.8077H40.3654C41.3505 75.7817 42.3142 76.0966 43.0917 76.6985C44.5281 77.6949 46.2375 78.2291 47.989 78.2291C49.7406 78.2291 51.4499 77.6949 52.8863 76.6985C53.6648 76.0984 54.6278 75.7838 55.6126 75.8077C56.5981 75.7796 57.5624 76.0947 58.339 76.6985C59.778 77.6942 61.4892 78.228 63.2426 78.228C64.9959 78.228 66.7072 77.6942 68.1462 76.6985Z" fill="#1E1B1B"/>
</svg>
